<svg width="20" height="16" viewBox="0 0 20 16" fill="none" xmlns="http://www.w3.org/2000/svg">
<path d="M17.6621 3.51034V3.23675C17.6621 1.97905 16.6389 0.955811 15.3812 0.955811H2.28094C1.0232 0.95585 0 1.97905 0 3.23675V3.51034H17.6621Z" fill="#B1B1B1"/>
<path d="M10.4347 10.8476C10.4347 9.6644 10.8152 8.53983 11.5178 7.61304H0V10.7948C0 12.0525 1.0232 13.0757 2.28094 13.0757H10.9162C10.601 12.3852 10.4347 11.6292 10.4347 10.8476ZM8.83109 10.1562H6.8625V8.98437H8.83109V10.1562ZM2.62727 8.98437H5.69062V10.1562H2.62727V8.98437Z" fill="#B1B1B1"/>
<path d="M12.7344 6.44124C13.6281 5.81597 14.6898 5.47909 15.8033 5.47909C16.4478 5.47909 17.0748 5.59226 17.6621 5.80855V4.68237H0V6.44124H12.7344Z" fill="#B1B1B1"/>
<path d="M20 10.8476C20 8.52979 18.1211 6.65088 15.8033 6.65088C13.4855 6.65088 11.6066 8.52979 11.6066 10.8476C11.6066 13.1653 13.4855 15.0442 15.8033 15.0442C18.1211 15.0442 20 13.1653 20 10.8476ZM16.369 13.0896V13.5665H15.7831V13.5665V13.5665H15.1971V13.0931C14.8429 12.9731 14.553 12.7621 14.27 12.5551L14.9618 11.6092C15.342 11.8873 15.5366 12.021 15.8033 12.021C15.9541 12.021 16.0761 11.9492 16.1219 11.8337C16.1773 11.6938 16.099 11.565 15.9124 11.489C15.9124 11.489 15.0748 11.2097 14.6876 10.8149C14.3627 10.4837 14.2594 10.0169 14.3628 9.57291C14.467 9.12584 14.7688 8.77627 15.1971 8.6017V8.12858H16.369V8.58209C16.6666 8.66475 16.9185 8.7869 17.0634 8.86553L16.5043 9.89541C16.1336 9.6942 15.7925 9.63381 15.6598 9.6792C15.531 9.72318 15.5114 9.80717 15.5041 9.83881C15.4936 9.88361 15.4881 9.95237 15.5597 10.0322C15.6286 10.109 16.3542 10.4037 16.3542 10.4037C17.1371 10.7224 17.5055 11.5228 17.2113 12.2654C17.0585 12.6514 16.7508 12.9437 16.369 13.0896Z" fill="#B1B1B1"/>
</svg>
