<svg width="25" height="23" viewBox="0 0 25 23" fill="none" xmlns="http://www.w3.org/2000/svg">
<path d="M23.6295 10.1753V2.76086C23.6295 1.23855 22.3909 0 20.8686 0H2.76077C1.23847 0 0 1.23855 0 2.76086V14.0159C0 15.5382 1.23847 16.7768 2.76077 16.7768H9.92062C10.8763 19.945 13.8212 22.259 17.2969 22.259C21.5444 22.259 24.9999 18.8035 24.9999 14.5559C25 12.9296 24.493 11.4199 23.6295 10.1753ZM12.9164 8.22332H1.70067V5.81238H21.9288V8.40506C20.6387 7.43115 19.0342 6.85287 17.2969 6.85287C15.6708 6.85278 14.1609 7.35977 12.9164 8.22332ZM2.76077 1.70067H20.8686C21.4532 1.70067 21.9288 2.17626 21.9288 2.76086V4.1117H1.70067V2.76086C1.70067 2.17626 2.17626 1.70067 2.76077 1.70067ZM2.76077 15.0761C2.17626 15.0761 1.70067 14.6005 1.70067 14.0159V9.924H11.146C10.1721 11.2141 9.59385 12.8186 9.59385 14.5559C9.59385 14.7308 9.60025 14.9041 9.61178 15.0762H2.76077V15.0761ZM17.297 20.5583C13.9872 20.5583 11.2945 17.8656 11.2945 14.5558C11.2945 11.2461 13.9872 8.55346 17.297 8.55346C20.6066 8.55346 23.2993 11.2461 23.2993 14.5558C23.2993 17.8656 20.6066 20.5583 17.297 20.5583Z"
      fill="#16DBCC"/>
<path d="M20.7568 13.2831L17.5802 16.1587L16.8938 16.7799C16.7317 16.9267 16.519 17 16.3065 17C16.0938 17 15.8814 16.9267 15.719 16.7799L14.2432 15.4436C13.9189 15.15 13.9189 14.6745 14.2432 14.3808C14.5671 14.0873 15.0931 14.0873 15.4174 14.3808L16.3065 15.1856L19.5826 12.2203C19.9069 11.9266 20.4329 11.9266 20.7568 12.2203C21.0811 12.5138 21.0811 12.9899 20.7568 13.2831Z"
      fill="#16DBCC"/>
</svg>
